<?xml version="1.0" encoding="utf-8"?>
<!DOCTYPE svg PUBLIC "-//W3C//DTD SVG 1.1//EN" "http://www.w3.org/Graphics/SVG/1.1/DTD/svg11.dtd">
<svg version="1.1" id="svg2759" xmlns="http://www.w3.org/2000/svg" xmlns:xlink="http://www.w3.org/1999/xlink" x="0px" y="0px"
	 width="135px" height="30px" viewBox="0 0 135 30" enable-background="new 0 0 135 30" xml:space="preserve">
<path fill="#E9E9E9" d="M14.972,0c4.195,0,7.769,1.465,10.715,4.393c1.409,1.411,2.481,3.022,3.213,4.834
	C29.632,11.04,30,12.963,30,14.999c0,2.054-0.363,3.978-1.085,5.771c-0.725,1.796-1.791,3.382-3.201,4.757
	c-1.464,1.444-3.124,2.553-4.98,3.319C18.876,29.613,16.954,30,14.974,30c-1.982,0-3.881-0.379-5.692-1.139
	c-1.812-0.759-3.438-1.857-4.875-3.294c-1.438-1.438-2.531-3.059-3.281-4.862C0.375,18.902,0,17,0,15
	c0-1.982,0.379-3.888,1.138-5.719C1.897,7.45,3,5.812,4.446,4.366C7.302,1.457,10.812,0,14.972,0z M15.024,2.706
	c-3.428,0-6.312,1.197-8.651,3.589c-1.179,1.196-2.085,2.54-2.719,4.031C3.019,11.816,2.703,13.375,2.703,15
	c0,1.607,0.315,3.157,0.951,4.646c0.634,1.49,1.54,2.822,2.719,3.99c1.178,1.171,2.508,2.062,3.992,2.681
	c1.48,0.614,3.034,0.924,4.659,0.924c1.607,0,3.164-0.312,4.676-0.938c1.51-0.625,2.869-1.524,4.085-2.704
	c2.339-2.285,3.508-5.15,3.508-8.599c0-1.661-0.304-3.232-0.911-4.714c-0.605-1.482-1.49-2.804-2.65-3.964
	C21.319,3.912,18.419,2.706,15.024,2.706z M14.838,12.51l-2.01,1.045c-0.215-0.445-0.478-0.759-0.79-0.938
	c-0.312-0.18-0.604-0.268-0.871-0.268c-1.338,0-2.009,0.883-2.009,2.651c0,0.803,0.17,1.446,0.509,1.928
	c0.34,0.482,0.84,0.724,1.5,0.724c0.876,0,1.491-0.428,1.85-1.285l1.849,0.938c-0.394,0.732-0.938,1.31-1.636,1.729
	c-0.694,0.42-1.463,0.629-2.303,0.629c-1.339,0-2.42-0.41-3.242-1.231c-0.82-0.82-1.231-1.965-1.231-3.429
	c0-1.429,0.416-2.562,1.246-3.401s1.879-1.26,3.147-1.26C12.704,10.34,14.034,11.062,14.838,12.51z M23.489,12.51l-1.982,1.045
	c-0.214-0.445-0.478-0.759-0.79-0.938c-0.312-0.18-0.612-0.268-0.896-0.268c-1.339,0-2.011,0.883-2.011,2.651
	c0,0.803,0.172,1.446,0.511,1.928c0.339,0.482,0.838,0.724,1.5,0.724c0.875,0,1.491-0.428,1.848-1.285l1.875,0.938
	c-0.41,0.732-0.964,1.31-1.66,1.729s-1.455,0.629-2.276,0.629c-1.356,0-2.44-0.41-3.254-1.231c-0.812-0.82-1.22-1.965-1.22-3.429
	c0-1.429,0.415-2.562,1.246-3.401c0.83-0.84,1.879-1.26,3.146-1.26C21.382,10.34,22.704,11.062,23.489,12.51z"/>
<path fill="#E9E9E9" d="M49.974,0.001c4.213,0,7.767,1.446,10.659,4.339c2.91,2.911,4.366,6.465,4.366,10.661
	c0,4.214-1.43,7.723-4.287,10.526C57.677,28.509,54.097,30,49.974,30c-4.056,0-7.572-1.473-10.555-4.42
	c-2.945-2.947-4.42-6.473-4.42-10.579s1.475-7.66,4.42-10.66C42.312,1.447,45.829,0.001,49.974,0.001z M50.024,2.706
	c-3.409,0-6.293,1.197-8.65,3.59c-2.447,2.5-3.67,5.402-3.67,8.705c0,3.321,1.214,6.196,3.643,8.624
	c2.428,2.43,5.321,3.644,8.678,3.644c3.341,0,6.252-1.224,8.732-3.671c2.357-2.268,3.536-5.133,3.536-8.598
	c0-3.41-1.196-6.312-3.589-8.705S53.419,2.706,50.024,2.706z M54.044,11.277v6.133H52.33v7.285h-4.661v-7.283h-1.714v-6.135
	c0-0.269,0.094-0.495,0.28-0.684c0.188-0.188,0.416-0.281,0.684-0.281h6.161c0.25,0,0.474,0.095,0.669,0.281
	C53.945,10.782,54.044,11.01,54.044,11.277z M47.909,7.421c0-1.41,0.695-2.116,2.09-2.116s2.089,0.705,2.089,2.116
	c0,1.394-0.696,2.089-2.089,2.089S47.909,8.812,47.909,7.421z"/>
<path fill="#E9E9E9" d="M84.973,0.001c4.213,0,7.768,1.446,10.66,4.339C98.543,7.232,100,10.786,100,15.001
	c0,4.214-1.43,7.723-4.287,10.526C92.678,28.509,89.098,30,84.973,30c-4.07,0-7.59-1.481-10.553-4.445
	c-2.947-2.946-4.421-6.465-4.421-10.554c0-4.106,1.474-7.661,4.421-10.661C77.311,1.447,80.83,0.001,84.973,0.001z M73.375,10.956
	c-0.447,1.231-0.671,2.581-0.671,4.045c0,3.321,1.214,6.196,3.644,8.624c2.445,2.412,5.338,3.617,8.678,3.617
	c3.377,0,6.285-1.224,8.732-3.67c0.875-0.841,1.562-1.716,2.062-2.625l-5.65-2.519c-0.197,0.945-0.676,1.72-1.434,2.316
	c-0.762,0.598-1.656,0.941-2.693,1.031v2.303h-1.74v-2.303c-1.66-0.019-3.18-0.615-4.553-1.796l2.061-2.088
	c0.982,0.91,2.1,1.365,3.35,1.365c0.518,0,0.961-0.115,1.326-0.35c0.365-0.23,0.551-0.614,0.551-1.15
	c0-0.377-0.135-0.68-0.402-0.912l-1.447-0.615l-1.768-0.804l-2.383-1.045L73.375,10.956z M85.025,2.68
	c-3.41,0-6.295,1.205-8.65,3.615c-0.59,0.59-1.145,1.26-1.662,2.01l5.732,2.571c0.25-0.786,0.725-1.415,1.42-1.889
	s1.51-0.736,2.438-0.79V5.893h1.742v2.305c1.375,0.072,2.625,0.535,3.75,1.393L87.84,11.6c-0.842-0.59-1.697-0.884-2.572-0.884
	c-0.465,0-0.879,0.089-1.244,0.269c-0.365,0.179-0.551,0.481-0.551,0.91c0,0.125,0.045,0.25,0.135,0.375l1.9,0.857l1.312,0.589
	l2.41,1.071l7.688,3.428c0.252-1.053,0.377-2.125,0.377-3.214c0-3.446-1.197-6.348-3.59-8.706
	C91.33,3.885,88.436,2.68,85.025,2.68z"/>
<path fill="#E9E9E9" d="M119.973,0c4.195,0,7.75,1.456,10.66,4.366C133.543,7.26,135,10.804,135,15c0,4.197-1.43,7.714-4.287,10.554
	c-3.018,2.963-6.598,4.445-10.74,4.445c-4.055,0-7.57-1.473-10.553-4.42C106.473,22.634,105,19.107,105,15
	c0-4.089,1.473-7.633,4.42-10.633C112.33,1.456,115.848,0,119.973,0z M120.025,2.706c-3.41,0-6.295,1.206-8.65,3.617
	c-2.447,2.481-3.67,5.375-3.67,8.678c0,3.339,1.213,6.214,3.643,8.625c2.428,2.43,5.32,3.643,8.678,3.643
	c3.34,0,6.252-1.223,8.732-3.668c2.357-2.287,3.535-5.151,3.535-8.599c0-3.428-1.195-6.321-3.588-8.678
	C126.33,3.911,123.436,2.706,120.025,2.706z M113.33,12.884c0.285-1.84,1.025-3.264,2.223-4.271c1.197-1.009,2.65-1.513,4.365-1.513
	c2.355,0,4.232,0.758,5.625,2.275s2.09,3.464,2.09,5.839c0,2.304-0.723,4.22-2.17,5.745c-1.447,1.527-3.32,2.291-5.625,2.291
	c-1.697,0-3.16-0.51-4.395-1.527c-1.232-1.017-1.973-2.465-2.223-4.34h3.777c0.09,1.822,1.188,2.732,3.295,2.732
	c1.053,0,1.902-0.455,2.545-1.365s0.965-2.125,0.965-3.643c0-1.59-0.295-2.8-0.883-3.629c-0.59-0.83-1.439-1.246-2.547-1.246
	c-2,0-3.125,0.883-3.375,2.65h1.1l-2.973,2.975l-2.975-2.975L113.33,12.884L113.33,12.884z"/>
</svg>
