<?xml version="1.0" encoding="utf-8"?>
<!-- Generator: Adobe Illustrator 15.1.0, SVG Export Plug-In . SVG Version: 6.00 Build 0)  -->
<!DOCTYPE svg PUBLIC "-//W3C//DTD SVG 1.1//EN" "http://www.w3.org/Graphics/SVG/1.1/DTD/svg11.dtd">
<svg version="1.1" id="svg2759" xmlns="http://www.w3.org/2000/svg" xmlns:xlink="http://www.w3.org/1999/xlink" x="0px" y="0px"
	 width="200px" height="62px" viewBox="300 269 200 62" enable-background="new 300 269 200 62" xml:space="preserve">
<path fill="#CCCCCC" d="M339.049,292.393v12.583h-3.514v14.905h-9.54v-14.905h-3.51v-12.583c0-1.099,0.889-1.988,1.987-1.988h12.586
	C338.156,290.405,339.049,291.294,339.049,292.393L339.049,292.393z M326.463,284.443c0,2.379,1.928,4.304,4.307,4.304
	c2.376,0,4.304-1.925,4.304-4.304c0-2.376-1.931-4.304-4.304-4.304C328.391,280.14,326.463,282.069,326.463,284.443z
	 M352.604,278.166c5.958,5.948,8.935,13.227,8.935,21.843s-2.925,15.816-8.779,21.611c-6.215,6.107-13.558,9.152-22.03,9.152
	c-8.366,0-15.584-3.027-21.641-9.075c-6.058-6.051-9.089-13.282-9.089-21.688c0-8.409,3.031-15.693,9.089-21.843
	c5.906-5.948,13.121-8.92,21.641-8.92C339.358,269.245,346.647,272.217,352.604,278.166z M313.092,282.165
	c-5.031,5.075-7.548,11.022-7.548,17.844c0,6.822,2.487,12.715,7.468,17.69s10.912,7.46,17.794,7.46
	c6.879,0,12.862-2.511,17.946-7.54c4.826-4.665,7.241-10.536,7.241-17.61c0-7.024-2.464-12.975-7.398-17.844
	c-4.876-4.923-10.805-7.388-17.789-7.388C323.825,274.78,317.918,277.242,313.092,282.165z M491.067,278.146
	c5.958,5.95,8.933,13.234,8.933,21.847s-2.929,15.819-8.779,21.616c-6.214,6.1-13.558,9.149-22.031,9.149
	c-8.369,0-15.584-3.026-21.643-9.074c-6.058-6.054-9.09-13.283-9.09-21.691c0-8.409,3.032-15.693,9.09-21.847
	c5.903-5.945,13.123-8.919,21.643-8.919C477.821,269.227,485.113,272.201,491.067,278.146z M451.556,282.148
	c-5.029,5.076-7.545,11.022-7.545,17.845c0,6.817,2.489,12.715,7.465,17.69c4.983,4.97,10.915,7.46,17.792,7.46
	c6.88,0,12.865-2.508,17.949-7.538c4.822-4.669,7.24-10.536,7.24-17.612c0-7.026-2.467-12.973-7.393-17.845
	c-4.88-4.922-10.806-7.384-17.792-7.384C462.292,274.765,456.381,277.226,451.556,282.148z M453.124,295.636l6.103,6.104
	l6.104-6.104l-2.257,0.017c0.611-4.215,3.529-5.443,6.906-5.443c4.604,0,7.063,3.447,7.063,9.963c0,6.208-2.84,10.27-7.217,10.27
	c-3.833,0-6.524-1.461-6.753-5.595h-7.753c1.072,7.971,6.986,12.034,13.583,12.034c9.593,0,15.963-7.206,15.963-16.478
	c0-9.505-5.986-16.634-15.807-16.634c-6.828,0-12.283,4.141-13.506,11.884L453.124,295.636z M378.322,278.146
	c-6.061,6.154-9.09,13.438-9.09,21.847c0,8.408,3.029,15.644,9.09,21.691c6.056,6.048,13.272,9.074,21.64,9.074
	c8.471,0,15.817-3.05,22.031-9.149c5.852-5.797,8.779-13.003,8.779-21.616c0-8.616-2.975-15.897-8.935-21.847
	c-5.952-5.945-13.244-8.919-21.873-8.919C391.438,269.227,384.222,272.201,378.322,278.146z M391.866,298.725
	c1.537,0.686,3.068,1.364,4.877,2.168l3.648,1.627l2.934,1.306c0.508,0.436,0.834,1.017,0.834,1.848c0,2.355-2,3.058-3.812,3.058
	c-2.786,0-4.828-0.865-6.867-2.783l-4.239,4.269c2.553,2.233,5.89,3.648,9.339,3.688v4.747h3.537v-4.747
	c4.203-0.312,7.686-2.944,8.469-6.847l11.598,5.164c-1.098,1.944-2.503,3.737-4.202,5.38c-5.084,5.029-11.065,7.538-17.95,7.538
	c-6.877,0-12.81-2.49-17.79-7.46c-4.982-4.976-7.469-10.873-7.469-17.691c0-2.917,0.458-5.671,1.378-8.266L391.866,298.725z
	 M417.833,282.148c4.924,4.869,7.391,10.814,7.391,17.845c0,2.324-0.259,4.521-0.782,6.584l-15.763-7.02
	c-1.612-0.719-3.242-1.438-4.944-2.2l-2.658-1.189l-3.939-1.75c-0.176-0.228-0.274-0.488-0.274-0.78c0-1.921,2.161-2.388,3.69-2.388
	c1.881,0,3.768,0.745,5.26,1.801l4.04-4.155c-2.633-2.038-5.302-2.704-7.732-2.821v-4.744h-3.537v4.744
	c-3.763,0.221-6.862,2.2-7.923,5.464l-11.766-5.236c0.972-1.446,2.114-2.831,3.428-4.155c4.828-4.922,10.73-7.384,17.711-7.384
	C407.021,274.765,412.951,277.226,417.833,282.148z"/>
</svg>
