<?xml version="1.0" encoding="utf-8"?>
<!-- Generator: Adobe Illustrator 15.1.0, SVG Export Plug-In . SVG Version: 6.00 Build 0)  -->
<!DOCTYPE svg PUBLIC "-//W3C//DTD SVG 1.1//EN" "http://www.w3.org/Graphics/SVG/1.1/DTD/svg11.dtd">
<svg version="1.1" id="svg2759" xmlns="http://www.w3.org/2000/svg" xmlns:xlink="http://www.w3.org/1999/xlink" x="0px" y="0px"
	 width="800px" height="600px" viewBox="0 0 800 600" enable-background="new 0 0 800 600" xml:space="preserve">
<path fill="#CCCCCC" d="M377.029,297.133v4.742h-1.324v5.617h-3.595v-5.617h-1.323v-4.742c0-0.414,0.335-0.749,0.749-0.749h4.743
	C376.693,296.384,377.029,296.719,377.029,297.133L377.029,297.133z M372.286,294.137c0,0.896,0.727,1.622,1.623,1.622
	c0.896,0,1.622-0.726,1.622-1.622c0-0.896-0.727-1.622-1.622-1.622C373.013,292.515,372.286,293.242,372.286,294.137z
	 M382.138,291.771c2.245,2.242,3.367,4.985,3.367,8.232c0,3.247-1.103,5.961-3.309,8.145c-2.342,2.301-5.109,3.449-8.302,3.449
	c-3.153,0-5.873-1.141-8.156-3.42c-2.283-2.281-3.425-5.006-3.425-8.174c0-3.169,1.142-5.914,3.425-8.232
	c2.226-2.242,4.945-3.362,8.156-3.362C377.146,288.409,379.893,289.529,382.138,291.771z M367.247,293.278
	c-1.896,1.913-2.845,4.154-2.845,6.725s0.938,4.792,2.815,6.667s4.112,2.812,6.706,2.812c2.592,0,4.847-0.947,6.763-2.842
	c1.819-1.758,2.729-3.971,2.729-6.637c0-2.647-0.929-4.89-2.788-6.725c-1.838-1.855-4.072-2.784-6.704-2.784
	C371.292,290.495,369.066,291.423,367.247,293.278z M434.32,291.764c2.246,2.242,3.367,4.987,3.367,8.233
	c0,3.246-1.104,5.962-3.309,8.146c-2.342,2.299-5.109,3.449-8.303,3.449c-3.154,0-5.873-1.141-8.156-3.42
	c-2.283-2.281-3.426-5.006-3.426-8.175c0-3.169,1.143-5.914,3.426-8.233c2.225-2.241,4.945-3.362,8.156-3.362
	C429.328,288.402,432.076,289.523,434.32,291.764z M419.43,293.272c-1.896,1.913-2.844,4.154-2.844,6.725
	c0,2.57,0.938,4.792,2.814,6.667c1.877,1.873,4.113,2.811,6.705,2.811s4.848-0.945,6.764-2.84c1.818-1.76,2.729-3.971,2.729-6.638
	c0-2.648-0.93-4.889-2.787-6.725c-1.838-1.855-4.072-2.783-6.705-2.783C423.475,290.489,421.248,291.417,419.43,293.272z
	 M420.021,298.355l2.299,2.3l2.301-2.3l-0.85,0.006c0.23-1.588,1.33-2.051,2.602-2.051c1.736,0,2.662,1.299,2.662,3.755
	c0,2.339-1.07,3.871-2.719,3.871c-1.445,0-2.459-0.551-2.545-2.109h-2.922c0.404,3.004,2.633,4.535,5.119,4.535
	c3.615,0,6.016-2.715,6.016-6.21c0-3.582-2.256-6.268-5.957-6.268c-2.574,0-4.629,1.56-5.09,4.478L420.021,298.355z M391.83,291.764
	c-2.284,2.319-3.426,5.064-3.426,8.233c0,3.169,1.142,5.896,3.426,8.175c2.282,2.279,5.002,3.42,8.155,3.42
	c3.193,0,5.961-1.15,8.303-3.449c2.205-2.184,3.309-4.9,3.309-8.146c0-3.247-1.121-5.991-3.367-8.233
	c-2.244-2.241-4.992-3.362-8.244-3.362C396.773,288.402,394.054,289.523,391.83,291.764z M396.935,299.519
	c0.579,0.258,1.156,0.514,1.837,0.817l1.376,0.613l1.105,0.492c0.191,0.164,0.314,0.383,0.314,0.697
	c0,0.887-0.754,1.152-1.436,1.152c-1.05,0-1.819-0.326-2.588-1.049l-1.598,1.609c0.962,0.842,2.22,1.375,3.52,1.389v1.789h1.333
	v-1.789c1.584-0.117,2.896-1.109,3.191-2.58l4.371,1.947c-0.414,0.732-0.943,1.408-1.584,2.027c-1.916,1.895-4.17,2.84-6.764,2.84
	c-2.592,0-4.828-0.938-6.705-2.811c-1.877-1.875-2.815-4.098-2.815-6.667c0-1.099,0.173-2.137,0.52-3.115L396.935,299.519z
	 M406.721,293.272c1.855,1.835,2.785,4.076,2.785,6.725c0,0.876-0.098,1.704-0.295,2.481l-5.941-2.645
	c-0.607-0.271-1.221-0.542-1.863-0.829l-1.002-0.448l-1.484-0.66c-0.067-0.086-0.104-0.184-0.104-0.294c0-0.724,0.815-0.9,1.391-0.9
	c0.709,0,1.42,0.281,1.982,0.679l1.523-1.566c-0.992-0.768-1.998-1.019-2.914-1.063v-1.788h-1.333v1.788
	c-1.418,0.083-2.586,0.829-2.986,2.059l-4.434-1.973c0.366-0.545,0.797-1.067,1.292-1.566c1.819-1.855,4.044-2.783,6.675-2.783
	C402.646,290.489,404.881,291.417,406.721,293.272z"/>
</svg>
